<svg width="10" height="10" viewBox="0 0 10 10" fill="none" xmlns="http://www.w3.org/2000/svg">
<path d="M0.523438 8.26172C0.347656 8.11849 0.360677 7.92318 0.5625 7.67578L2.97461 4.69727L0.5625 1.71875C0.360677 1.47135 0.347656 1.27604 0.523438 1.13281L1.38281 0.449219C1.59115 0.286458 1.78646 0.31901 1.96875 0.546875L4.97656 4.31641C5.17839 4.57031 5.17839 4.82422 4.97656 5.07812L1.96875 8.84766C1.78646 9.07552 1.59115 9.10807 1.38281 8.94531L0.523438 8.26172ZM4.44922 8.26172C4.27344 8.11849 4.28646 7.92318 4.48828 7.67578L6.90039 4.69727L4.48828 1.71875C4.28646 1.47135 4.27344 1.27604 4.44922 1.13281L5.30859 0.449219C5.51693 0.286458 5.71224 0.31901 5.89453 0.546875L8.90234 4.31641C9.10417 4.57031 9.10417 4.82422 8.90234 5.07812L5.89453 8.84766C5.71224 9.07552 5.51693 9.10807 5.30859 8.94531L4.44922 8.26172Z" fill="black"/>
</svg>
