<svg width="57" height="18" viewBox="0 0 57 18" fill="none" xmlns="http://www.w3.org/2000/svg">
<path d="M9.06955 13.123C9.01821 13.123 8.97854 13.1066 8.95054 13.074C8.92254 13.046 8.90854 13.0086 8.90854 12.962V12.724C8.90854 12.6773 8.92254 12.6376 8.95054 12.605C8.97854 12.577 9.01821 12.563 9.06955 12.563H9.25155C9.35888 12.563 9.44521 12.542 9.51055 12.5C9.57588 12.458 9.63421 12.3856 9.68555 12.283C9.74155 12.185 9.80688 12.0496 9.88155 11.877L11.4005 8.27197C11.4145 8.23463 11.4332 8.20663 11.4565 8.18797C11.4845 8.16463 11.5242 8.15297 11.5755 8.15297H11.8835C11.9255 8.15297 11.9605 8.16697 11.9885 8.19497C12.0165 8.22297 12.0305 8.25564 12.0305 8.29297C12.0305 8.31164 12.0282 8.3303 12.0235 8.34897C12.0189 8.36297 12.0095 8.3863 11.9955 8.41897L10.6655 11.569C10.5955 11.737 10.5185 11.912 10.4345 12.094C10.3552 12.276 10.2642 12.444 10.1615 12.598C10.0635 12.7566 9.94688 12.8826 9.81155 12.976C9.67621 13.074 9.51755 13.123 9.33555 13.123H9.06955ZM10.0425 11.688L8.62854 8.41897C8.60521 8.36297 8.59354 8.3233 8.59354 8.29997C8.59821 8.25797 8.61454 8.22297 8.64254 8.19497C8.67054 8.16697 8.70321 8.15297 8.74054 8.15297H9.06955C9.12088 8.15297 9.15821 8.16463 9.18155 8.18797C9.20955 8.2113 9.23055 8.2393 9.24455 8.27197L10.4065 11.051L10.0425 11.688ZM12.8975 11.793C12.8508 11.793 12.8112 11.779 12.7785 11.751C12.7505 11.7183 12.7365 11.6786 12.7365 11.632V8.31397C12.7365 8.2673 12.7505 8.22997 12.7785 8.20197C12.8112 8.1693 12.8508 8.15297 12.8975 8.15297H13.2335C13.2802 8.15297 13.3175 8.1693 13.3455 8.20197C13.3735 8.22997 13.3875 8.2673 13.3875 8.31397V9.65797H15.2985V8.31397C15.2985 8.2673 15.3125 8.22997 15.3405 8.20197C15.3732 8.1693 15.4128 8.15297 15.4595 8.15297H15.7885C15.8352 8.15297 15.8725 8.1693 15.9005 8.20197C15.9332 8.22997 15.9495 8.2673 15.9495 8.31397V11.632C15.9495 11.6786 15.9332 11.7183 15.9005 11.751C15.8725 11.779 15.8352 11.793 15.7885 11.793H15.4595C15.4128 11.793 15.3732 11.779 15.3405 11.751C15.3125 11.7183 15.2985 11.6786 15.2985 11.632V10.218H13.3875V11.632C13.3875 11.6786 13.3735 11.7183 13.3455 11.751C13.3175 11.779 13.2802 11.793 13.2335 11.793H12.8975ZM17.1561 11.793C17.1141 11.793 17.0768 11.779 17.0441 11.751C17.0161 11.7183 17.0021 11.6833 17.0021 11.646V8.31397C17.0021 8.2673 17.0161 8.22997 17.0441 8.20197C17.0768 8.1693 17.1165 8.15297 17.1631 8.15297H17.4991C17.5458 8.15297 17.5831 8.1693 17.6111 8.20197C17.6391 8.22997 17.6531 8.2673 17.6531 8.31397V11.282L17.4711 11.093L19.5921 8.25797C19.6155 8.22997 19.6411 8.20663 19.6691 8.18797C19.6971 8.16463 19.7321 8.15297 19.7741 8.15297H20.0961C20.1335 8.15297 20.1661 8.16697 20.1941 8.19497C20.2268 8.22297 20.2431 8.25564 20.2431 8.29297V11.632C20.2431 11.6786 20.2268 11.7183 20.1941 11.751C20.1661 11.779 20.1288 11.793 20.0821 11.793H19.7531C19.7018 11.793 19.6621 11.779 19.6341 11.751C19.6061 11.7183 19.5921 11.6786 19.5921 11.632V8.83897L19.7881 8.83197L17.6531 11.688C17.6345 11.7113 17.6111 11.7346 17.5831 11.758C17.5551 11.7813 17.5178 11.793 17.4711 11.793H17.1561ZM21.4288 11.793C21.3821 11.793 21.3424 11.779 21.3098 11.751C21.2818 11.7183 21.2678 11.6786 21.2678 11.632V8.31397C21.2678 8.2673 21.2818 8.22997 21.3098 8.20197C21.3424 8.1693 21.3821 8.15297 21.4288 8.15297H21.7578C21.8044 8.15297 21.8418 8.1693 21.8698 8.20197C21.9024 8.22997 21.9188 8.2673 21.9188 8.31397V9.65797H22.5558L23.5008 8.25797C23.5241 8.2253 23.5498 8.19963 23.5778 8.18097C23.6058 8.1623 23.6431 8.15297 23.6898 8.15297H24.0538C24.0958 8.15297 24.1308 8.1623 24.1588 8.18097C24.1868 8.19963 24.2008 8.22764 24.2008 8.26497C24.2008 8.2743 24.1961 8.2883 24.1868 8.30697C24.1821 8.32097 24.1751 8.33497 24.1658 8.34897L23.1158 9.89597L24.3058 11.59C24.3291 11.618 24.3408 11.6483 24.3408 11.681C24.3408 11.7183 24.3268 11.7463 24.2988 11.765C24.2754 11.7836 24.2428 11.793 24.2008 11.793H23.7738C23.7318 11.793 23.6968 11.7836 23.6688 11.765C23.6408 11.7463 23.6151 11.7206 23.5918 11.688L22.5628 10.225H21.9188V11.632C21.9188 11.6786 21.9024 11.7183 21.8698 11.751C21.8418 11.779 21.8044 11.793 21.7578 11.793H21.4288ZM26.0357 11.863C25.8024 11.863 25.59 11.8163 25.3987 11.723C25.2074 11.6296 25.0534 11.5036 24.9367 11.345C24.82 11.1863 24.7617 11.0066 24.7617 10.806C24.7617 10.484 24.8924 10.2273 25.1537 10.036C25.415 9.84464 25.7557 9.71864 26.1757 9.65797L27.2187 9.51097V9.30797C27.2187 9.08397 27.1534 8.90897 27.0227 8.78297C26.8967 8.65697 26.689 8.59397 26.3997 8.59397C26.1897 8.59397 26.0194 8.63597 25.8887 8.71997C25.7627 8.80397 25.674 8.9113 25.6227 9.04197C25.5947 9.11197 25.5457 9.14697 25.4757 9.14697H25.1607C25.1094 9.14697 25.0697 9.13297 25.0417 9.10497C25.0184 9.0723 25.0067 9.03497 25.0067 8.99297C25.0067 8.92297 25.0324 8.83664 25.0837 8.73397C25.1397 8.6313 25.2237 8.53097 25.3357 8.43297C25.4477 8.33497 25.59 8.2533 25.7627 8.18797C25.94 8.11797 26.1547 8.08297 26.4067 8.08297C26.6867 8.08297 26.9224 8.1203 27.1137 8.19497C27.305 8.26497 27.4544 8.36064 27.5617 8.48197C27.6737 8.6033 27.753 8.74097 27.7997 8.89497C27.851 9.04897 27.8767 9.2053 27.8767 9.36397V11.632C27.8767 11.6786 27.8604 11.7183 27.8277 11.751C27.7997 11.779 27.7624 11.793 27.7157 11.793H27.3937C27.3424 11.793 27.3027 11.779 27.2747 11.751C27.2467 11.7183 27.2327 11.6786 27.2327 11.632V11.331C27.172 11.415 27.0904 11.499 26.9877 11.583C26.885 11.6623 26.7567 11.73 26.6027 11.786C26.4487 11.8373 26.2597 11.863 26.0357 11.863ZM26.1827 11.338C26.374 11.338 26.549 11.2983 26.7077 11.219C26.8664 11.135 26.99 11.0066 27.0787 10.834C27.172 10.6613 27.2187 10.4443 27.2187 10.183V9.98697L26.4067 10.106C26.0754 10.1526 25.8257 10.232 25.6577 10.344C25.4897 10.4513 25.4057 10.589 25.4057 10.757C25.4057 10.8876 25.443 10.9973 25.5177 11.086C25.597 11.17 25.695 11.233 25.8117 11.275C25.933 11.317 26.0567 11.338 26.1827 11.338ZM28.708 11.793C28.6613 11.793 28.6217 11.7766 28.589 11.744C28.5563 11.7113 28.54 11.6716 28.54 11.625V11.366C28.54 11.268 28.589 11.2166 28.687 11.212C28.8317 11.2073 28.953 11.1396 29.051 11.009C29.149 10.8736 29.2237 10.6613 29.275 10.372C29.3263 10.078 29.352 9.69064 29.352 9.20997V8.31397C29.352 8.2673 29.366 8.22997 29.394 8.20197C29.4267 8.1693 29.4663 8.15297 29.513 8.15297H31.739C31.7857 8.15297 31.823 8.1693 31.851 8.20197C31.8837 8.22997 31.9 8.2673 31.9 8.31397V11.632C31.9 11.6786 31.8837 11.7183 31.851 11.751C31.823 11.779 31.7857 11.793 31.739 11.793H31.403C31.3563 11.793 31.319 11.779 31.291 11.751C31.263 11.7183 31.249 11.6786 31.249 11.632V8.71297H29.989V9.28697C29.989 9.73497 29.9633 10.12 29.912 10.442C29.8607 10.7593 29.7813 11.0183 29.674 11.219C29.5713 11.415 29.4383 11.5596 29.275 11.653C29.1163 11.7463 28.9273 11.793 28.708 11.793ZM33.1045 11.793C33.0579 11.793 33.0182 11.779 32.9855 11.751C32.9575 11.7183 32.9435 11.6786 32.9435 11.632V8.31397C32.9435 8.2673 32.9575 8.22997 32.9855 8.20197C33.0182 8.1693 33.0579 8.15297 33.1045 8.15297H33.4405C33.4872 8.15297 33.5245 8.1693 33.5525 8.20197C33.5852 8.22997 33.6015 8.2673 33.6015 8.31397V9.34297H34.3855C34.8615 9.34297 35.2092 9.45497 35.4285 9.67897C35.6479 9.90297 35.7575 10.2063 35.7575 10.589C35.7575 10.9996 35.6362 11.303 35.3935 11.499C35.1509 11.695 34.7869 11.793 34.3015 11.793H33.1045ZM33.5945 11.268H34.3295C34.6095 11.268 34.8149 11.219 34.9455 11.121C35.0762 11.0183 35.1415 10.841 35.1415 10.589C35.1415 10.3463 35.0785 10.1666 34.9525 10.05C34.8265 9.92864 34.6189 9.86797 34.3295 9.86797H33.5945V11.268ZM36.6114 11.793C36.5647 11.793 36.525 11.779 36.4924 11.751C36.4644 11.7183 36.4504 11.6786 36.4504 11.632V8.31397C36.4504 8.2673 36.4644 8.22997 36.4924 8.20197C36.525 8.1693 36.5647 8.15297 36.6114 8.15297H36.9474C36.994 8.15297 37.0314 8.1693 37.0594 8.20197C37.0874 8.22997 37.1014 8.2673 37.1014 8.31397V9.65797H39.0124V8.31397C39.0124 8.2673 39.0264 8.22997 39.0544 8.20197C39.087 8.1693 39.1267 8.15297 39.1734 8.15297H39.5024C39.549 8.15297 39.5864 8.1693 39.6144 8.20197C39.647 8.22997 39.6634 8.2673 39.6634 8.31397V11.632C39.6634 11.6786 39.647 11.7183 39.6144 11.751C39.5864 11.779 39.549 11.793 39.5024 11.793H39.1734C39.1267 11.793 39.087 11.779 39.0544 11.751C39.0264 11.7183 39.0124 11.6786 39.0124 11.632V10.218H37.1014V11.632C37.1014 11.6786 37.0874 11.7183 37.0594 11.751C37.0314 11.779 36.994 11.793 36.9474 11.793H36.6114ZM41.731 11.863C41.4977 11.863 41.2853 11.8163 41.094 11.723C40.9027 11.6296 40.7487 11.5036 40.632 11.345C40.5153 11.1863 40.457 11.0066 40.457 10.806C40.457 10.484 40.5877 10.2273 40.849 10.036C41.1103 9.84464 41.451 9.71864 41.871 9.65797L42.914 9.51097V9.30797C42.914 9.08397 42.8487 8.90897 42.718 8.78297C42.592 8.65697 42.3843 8.59397 42.095 8.59397C41.885 8.59397 41.7147 8.63597 41.584 8.71997C41.458 8.80397 41.3693 8.9113 41.318 9.04197C41.29 9.11197 41.241 9.14697 41.171 9.14697H40.856C40.8047 9.14697 40.765 9.13297 40.737 9.10497C40.7137 9.0723 40.702 9.03497 40.702 8.99297C40.702 8.92297 40.7277 8.83664 40.779 8.73397C40.835 8.6313 40.919 8.53097 41.031 8.43297C41.143 8.33497 41.2853 8.2533 41.458 8.18797C41.6353 8.11797 41.85 8.08297 42.102 8.08297C42.382 8.08297 42.6177 8.1203 42.809 8.19497C43.0003 8.26497 43.1497 8.36064 43.257 8.48197C43.369 8.6033 43.4483 8.74097 43.495 8.89497C43.5463 9.04897 43.572 9.2053 43.572 9.36397V11.632C43.572 11.6786 43.5557 11.7183 43.523 11.751C43.495 11.779 43.4577 11.793 43.411 11.793H43.089C43.0377 11.793 42.998 11.779 42.97 11.751C42.942 11.7183 42.928 11.6786 42.928 11.632V11.331C42.8673 11.415 42.7857 11.499 42.683 11.583C42.5803 11.6623 42.452 11.73 42.298 11.786C42.144 11.8373 41.955 11.863 41.731 11.863ZM41.878 11.338C42.0693 11.338 42.2443 11.2983 42.403 11.219C42.5617 11.135 42.6853 11.0066 42.774 10.834C42.8673 10.6613 42.914 10.4443 42.914 10.183V9.98697L42.102 10.106C41.7707 10.1526 41.521 10.232 41.353 10.344C41.185 10.4513 41.101 10.589 41.101 10.757C41.101 10.8876 41.1383 10.9973 41.213 11.086C41.2923 11.17 41.3903 11.233 41.507 11.275C41.6283 11.317 41.752 11.338 41.878 11.338ZM46.8463 11.793C46.795 11.793 46.7553 11.779 46.7273 11.751C46.6993 11.7183 46.6853 11.6786 46.6853 11.632V10.491H45.8803V10.456C45.4416 10.456 45.115 10.3486 44.9003 10.134C44.6903 9.91464 44.5853 9.63697 44.5853 9.30097C44.5853 8.90897 44.6996 8.61964 44.9283 8.43297C45.1616 8.2463 45.5116 8.15297 45.9783 8.15297H47.1823C47.229 8.15297 47.2663 8.1693 47.2943 8.20197C47.327 8.22997 47.3433 8.2673 47.3433 8.31397V11.632C47.3433 11.6786 47.327 11.7183 47.2943 11.751C47.2663 11.779 47.229 11.793 47.1823 11.793H46.8463ZM44.6273 11.793C44.5853 11.793 44.5503 11.779 44.5223 11.751C44.4943 11.723 44.4803 11.6903 44.4803 11.653C44.4803 11.6343 44.4826 11.6156 44.4873 11.597C44.4966 11.5736 44.5106 11.5503 44.5293 11.527L45.3623 10.295L46.0343 10.344L45.1453 11.688C45.1266 11.7113 45.101 11.7346 45.0683 11.758C45.0356 11.7813 45.0006 11.793 44.9633 11.793H44.6273ZM45.9013 9.96597H46.6923V8.67797H45.9573C45.696 8.67797 45.5023 8.72464 45.3763 8.81797C45.255 8.90664 45.1943 9.06764 45.1943 9.30097C45.1943 9.4923 45.2503 9.65097 45.3623 9.77697C45.479 9.90297 45.6586 9.96597 45.9013 9.96597Z" fill="black"/>
<rect x="0.53746" y="2.97496" width="55.7949" height="12.2234" rx="3.92308" stroke="url(#paint0_linear_3704_2705)" stroke-width="0.871795"/>
<defs>
<linearGradient id="paint0_linear_3704_2705" x1="28.4349" y1="2.53906" x2="28.4349" y2="15.6343" gradientUnits="userSpaceOnUse">
<stop stop-color="#FFC107"/>
<stop offset="1" stop-color="#EC851A"/>
</linearGradient>
</defs>
</svg>
